<svg width="132" height="40" viewBox="0 0 132 40" fill="none" xmlns="http://www.w3.org/2000/svg">
<g clip-path="url(#clip0_9_2)">
<path d="M57.194 40C54.0365 37.8532 50.1954 36.9034 46.696 37.0464C43.167 37.1724 41.5696 39.7238 41.5696 39.7238C39.9772 37.0464 36.8345 35.4012 31.9632 35.4375C24.0977 35.5272 16.2942 39.0357 10.1153 39.0357C4.17655 39.0357 -0.142516 35.4375 0.00359855 29.0433C0.251251 17.8297 10.0533 7.73317 17.3764 3.18524C21.5816 0.575687 25.1106 -0.20209 27.4262 0.0426313C29.1053 0.231624 31.1261 2.10701 29.8581 4.86921C27.976 8.92285 25.3905 8.58606 25.4821 6.64041C25.5366 5.3853 26.3984 4.59057 27.0547 4.15685C27.4732 3.88063 28.2013 3.80552 28.5728 3.79098C28.9517 3.49296 29.2291 1.27108 26.2102 2.00282C23.1913 2.72972 19.5607 5.59368 16.0985 9.28872C12.6388 12.9838 7.24992 19.9765 5.92002 27.323C5.30089 30.7345 5.71695 36.9277 14.0554 36.8525C21.1308 36.7992 31.5768 32.2973 41.1684 32.37C44.9006 32.4015 48.1275 33.3731 50.6684 34.8851C53.1622 36.3728 56.1415 38.5341 57.1965 40H57.194ZM59.4724 19.6857H60.9113C60.9113 19.6857 53.6501 29.8283 49.5292 29.3728C47.2458 29.1184 47.9194 26.3804 47.9194 26.3804C47.9194 26.3804 44.6925 30.0222 41.743 29.2977C39.056 28.6314 40.7895 24.3233 40.7895 24.3233C40.4874 24.4445 34.6799 30.7684 30.6085 29.2517C26.3415 27.667 28.548 22.3704 29.3628 20.7785C30.0513 19.4386 30.8091 18.1229 30.8091 18.1229C30.8091 18.1229 30.1528 18.3095 29.7566 18.3894C29.3455 18.4888 28.7264 18.6002 28.7264 18.6002C28.7264 18.6002 26.7055 21.7743 25.4747 23.359C24.2438 24.9363 18.9961 30.3808 15.9054 29.2953C12.8171 28.2122 13.5824 24.0374 15.3184 20.7179C18.1268 15.3316 24.8085 8.72659 28.8353 9.7079C32.8993 10.7086 29.5387 17.0835 29.5387 17.0835C29.5387 17.0835 30.3361 17.1876 32.2727 15.9083C35.0687 14.0668 38.7464 9.11669 42.7336 9.70063C44.591 9.96231 46.3493 11.8232 43.957 15.3559C43.1893 16.485 41.9114 17.5026 40.9282 16.4995C40.3239 15.8865 40.8514 14.7404 41.4929 13.9699C42.3993 12.8723 43.6474 13.0128 43.6474 13.0128C43.6474 13.0128 44.2963 11.5542 42.6321 11.5833C41.27 11.6148 37.84 14.6677 35.9033 17.757C34.1227 20.5919 31.4382 25.4137 34.1376 26.4701C36.6141 27.4344 41.3319 22.0191 43.5137 19.1914C45.7054 16.3493 50.6758 9.91628 54.8562 9.66186C56.2827 9.56494 57.142 10.837 57.142 10.837L57.6126 10.0956H61.7855C61.7855 10.0956 53.9275 22.792 53.3084 23.7394C52.8279 24.5026 52.1939 26.1866 53.9671 25.2344C55.77 24.2773 59.4724 19.6857 59.4724 19.6857ZM27.0943 18.3919C27.025 18.3676 25.9873 18.0769 24.9571 17.4469C23.9343 16.8145 23.4613 15.872 23.4167 15.8041C23.3845 15.7363 23.3374 15.7896 23.3077 15.8477C23.2681 15.9083 23.0452 16.1773 21.5568 18.2877C20.0783 20.3957 17.8717 24.7207 19.9322 25.4597C21.2547 25.9322 23.4786 23.6885 24.6871 22.1984C25.7917 20.8221 27.124 18.7068 27.1884 18.5784C27.2256 18.4427 27.1785 18.4137 27.0943 18.3919ZM28.7586 11.6439C27.659 10.8443 24.8704 12.7148 24.863 14.629C24.8481 16.5819 27.3791 17.1416 27.6986 17.1586C27.6986 17.1586 27.9834 17.2313 28.0998 17.0011C28.1766 16.8581 28.5183 16.2451 28.8972 15.2735C29.2761 14.2994 29.7715 12.3998 28.7586 11.6439ZM50.0096 22.2129C51.6986 19.9838 56.3372 12.1672 56.3372 12.1672C56.3372 12.1672 56.2653 11.6148 55.718 11.593C55.0741 11.5615 54.0142 11.7723 51.8695 14.3528C49.7323 16.926 48.0903 18.9903 46.8818 21.1226C45.5667 23.4486 44.9848 25.0866 45.7426 25.5421C45.9531 25.6632 46.2775 25.6705 46.5425 25.6172C47.0378 25.496 47.6817 25.0187 48.5708 24.0229C48.9893 23.5601 49.4524 22.9398 50.0096 22.2129ZM68.7545 10.1028H64.792L62.5607 13.6041H66.5182L68.7545 10.1028ZM120.712 36.1717C120.524 36.1689 120.337 36.203 120.163 36.2721C119.988 36.3412 119.83 36.4438 119.697 36.5739C119.562 36.7032 119.455 36.8574 119.382 37.0275C119.309 37.1977 119.271 37.3804 119.271 37.5649C119.271 37.7494 119.309 37.9321 119.382 38.1023C119.455 38.2724 119.562 38.4267 119.697 38.5559C119.969 38.8103 120.311 38.9605 120.712 38.9605C120.901 38.9632 121.089 38.9286 121.264 38.8588C121.439 38.7891 121.598 38.6856 121.732 38.5545C121.865 38.4234 121.971 38.2674 122.041 38.0957C122.112 37.9241 122.147 37.7403 122.143 37.5552C122.148 37.3723 122.113 37.1905 122.041 37.0216C121.97 36.8526 121.863 36.7001 121.727 36.5739C121.595 36.4427 121.437 36.3393 121.262 36.2702C121.088 36.201 120.9 36.1675 120.712 36.1717ZM122.384 37.5528C122.388 37.7656 122.348 37.9771 122.266 38.1743C122.184 38.3714 122.061 38.5499 121.906 38.6989C121.751 38.8527 121.566 38.9744 121.362 39.0569C121.159 39.1393 120.94 39.1807 120.719 39.1786C120.5 39.1804 120.283 39.1387 120.081 39.0563C119.879 38.9739 119.696 38.8523 119.543 38.6989C119.384 38.5527 119.258 38.3752 119.174 38.1781C119.09 37.981 119.049 37.7687 119.055 37.5552C119.055 37.1191 119.226 36.7314 119.551 36.4261C119.701 36.2701 119.884 36.1468 120.087 36.0642C120.289 35.9816 120.507 35.9414 120.727 35.9464C120.948 35.9424 121.167 35.983 121.371 36.0655C121.575 36.1481 121.76 36.2708 121.913 36.4261C122.223 36.7314 122.384 37.1142 122.384 37.5552V37.5528ZM121.145 37.2111C121.145 37.0827 121.108 36.9931 121.029 36.9495C120.955 36.8962 120.814 36.8744 120.643 36.8744H120.365V37.5189H120.658C120.762 37.5217 120.867 37.5086 120.967 37.4801C121.076 37.4268 121.145 37.3468 121.145 37.2111ZM120.046 36.6732H120.682C120.855 36.6625 121.027 36.6822 121.192 36.7314C121.281 36.7668 121.356 36.8283 121.408 36.9072C121.459 36.9862 121.484 37.0788 121.48 37.1724C121.48 37.3299 121.418 37.451 121.294 37.5261C121.213 37.5753 121.123 37.6082 121.029 37.6231C121.17 37.6376 121.287 37.6957 121.339 37.7878C121.401 37.8678 121.439 37.9637 121.448 38.064V38.19C121.448 38.2288 121.455 38.2651 121.455 38.3185C121.462 38.3693 121.462 38.4008 121.47 38.4081L121.487 38.4323H121.178V38.4154C121.16 38.4081 121.16 38.4081 121.16 38.4008V38.1973C121.16 38.0035 121.116 37.8702 120.992 37.8024C120.93 37.7563 120.806 37.7345 120.635 37.7345H120.373V38.4299H120.053V36.6732H120.046ZM127.223 3.81279C124.305 5.63729 120.232 7.28492 116.338 6.9239C115.355 7.91247 114.303 9.04885 113.233 10.2918C119.999 11.576 125.908 7.53933 129.065 4.08174C131.032 1.92771 132 0.0135556 132 0.0135556C132 0.0135556 130.128 2.01009 127.223 3.81279ZM115.633 33.4943C115.068 34.3617 114.441 36.0215 116.284 34.9893C118.538 33.7172 121.75 29.0142 121.75 29.0142H123.206C123.206 29.0142 121.294 31.946 118.793 34.6089C116.502 37.0609 113.713 39.2828 111.762 39.0672C109.464 38.803 110.177 35.893 110.177 35.893C110.177 35.893 106.883 39.2683 104.624 39.0357C101.559 38.7061 102.495 35.0426 102.495 35.0426C102.495 35.0426 99.0275 39.1617 96.6649 39.0357C92.9576 38.8273 93.8863 34.4562 94.9066 31.3984C95.4737 29.7605 95.9839 28.4739 95.9839 28.4739C95.9839 28.4739 95.6124 28.5635 94.8224 28.6774C94.4039 28.7356 93.6535 28.7743 93.6535 28.7743C93.6535 28.7743 92.1131 31.4057 90.8797 32.9903C89.6415 34.5701 84.4012 40.017 81.3204 38.9387C78.455 37.9284 79.3986 33.7051 81.0653 30.3517C83.4725 25.4597 90.3027 18.4306 94.233 19.3489C98.3069 20.306 94.3271 27.495 94.3271 27.495C94.3271 27.495 94.3345 27.5241 94.3741 27.5386C94.4484 27.5701 94.6664 27.5919 95.1542 27.495C95.9368 27.352 96.6501 27.0686 96.6501 27.0686C96.6501 27.0686 100.754 18.7723 105.283 13.3424C109.803 7.91247 118.83 -1.43054 122.376 0.832523C123.243 1.37769 122.857 3.29912 121.695 5.62518C121.166 5.78559 120.628 5.92063 120.085 6.02982C120.875 4.66083 121.386 3.50992 121.542 2.69337C122.074 -0.102748 115.301 5.79721 110.462 12.1624C105.623 18.5275 102.72 24.2894 102.72 24.2894C102.72 24.2894 103.703 23.7491 105.221 22.5691C106.806 21.3334 108.991 19.3877 111.368 17.018C113.232 15.1811 114.977 13.2325 116.594 11.1835C117.121 11.1544 117.631 11.1108 118.134 11.0333C116.365 13.3549 114.438 15.5567 112.366 17.6238C110.447 19.5089 108.347 21.5442 106.536 23.0246C103.649 25.3652 101.41 26.7051 101.41 26.7051C101.41 26.7051 97.1676 34.9457 99.4758 35.4763C100.83 35.7913 103.51 31.8055 103.51 31.8055C103.51 31.8055 106.992 26.6591 109.1 24.3475C111.965 21.1977 114.424 19.3732 116.896 19.3296C118.335 19.3053 119.186 20.7955 119.186 20.7955L119.86 19.7851H124.033C124.033 19.7923 116.262 32.5372 115.633 33.4967V33.4943ZM92.2146 28.4739C91.5259 28.1642 90.8822 27.7666 90.3002 27.2915C89.3641 26.5379 88.8911 25.6778 88.854 25.6099C88.8218 25.5421 88.7747 25.5857 88.7376 25.6535C88.6905 25.7068 88.5271 25.8425 87.0337 27.9578C85.5552 30.0658 83.2793 34.4199 85.3472 35.154C86.6548 35.6241 88.8614 33.3877 90.0699 31.9072C91.1769 30.531 92.222 28.7743 92.274 28.6532C92.3384 28.532 92.2839 28.4957 92.2121 28.4739H92.2146ZM94.3196 24.9073C94.706 23.9429 95.1939 22.0336 94.1636 21.2873C93.0814 20.4877 90.2928 22.3559 90.2755 24.2627C90.2631 26.2229 92.2517 27.1122 92.7173 27.2333C92.9897 27.3012 93.0814 27.2915 93.2201 27.0831C93.2968 26.9474 93.9234 25.8789 94.3196 24.9073ZM118.243 22.2202C118.327 22.0796 118.367 21.944 118.367 21.944C118.367 21.944 118.29 21.3988 117.748 21.377C117.096 21.3455 116.229 21.4739 113.921 23.9259C112.012 25.96 110.366 28.2167 109.02 30.6449C107.708 32.9782 107.188 34.7058 107.938 35.154C108.154 35.2752 108.473 35.2897 108.736 35.2267C109.246 35.108 109.825 34.6452 110.717 33.6518C111.128 33.2011 111.591 32.5372 112.133 31.8031C113.659 29.8065 117.475 23.4922 118.243 22.2202ZM127.223 3.81279C124.305 5.63729 120.232 7.28492 116.338 6.9239C115.355 7.91247 114.303 9.04885 113.233 10.2918C119.999 11.576 125.908 7.53933 129.065 4.08174C131.032 1.92771 132 0.0135556 132 0.0135556C132 0.0135556 130.128 2.01009 127.223 3.81279ZM108.225 8.55456C105.018 6.96993 102.695 5.04124 100.266 3.82975C97.9354 2.67641 96.4396 2.19666 94.5673 2.4438C94.3047 2.48464 94.0456 2.54457 93.7922 2.62311C93.7922 2.62311 94.7605 5.80932 90.9194 11.1665C87.0263 16.5964 83.4898 16.5674 82.4893 15.0627C81.4368 13.4926 82.7914 10.2846 85.0599 7.42545C87.4374 4.44276 91.6029 1.94952 91.6029 1.94952C91.6029 1.94952 90.2705 1.17416 86.9966 2.9599C83.8142 4.70445 78.3238 8.85501 73.2444 15.8502C68.1576 22.8429 67.1521 26.6954 66.424 29.7241C65.6885 32.7529 66.3621 35.9997 69.8392 35.9997C73.3212 35.9997 77.3629 30.8678 78.5095 29.0869C80.622 25.7601 82.0014 20.6792 79.1212 21.3818C77.6972 21.721 76.5431 23.2475 75.8225 24.7207C75.0721 26.2229 74.7774 27.6598 74.7774 27.6598C74.7774 27.6598 73.5787 28.0789 71.9591 29.2444C71.0051 29.9331 70.1121 30.699 69.2894 31.5341C69.2894 31.5341 69.2968 29.1111 71.2954 25.1907C73.3014 21.2655 76.9617 19.4774 79.037 19.3126C80.9092 19.1624 83.3462 20.6937 81.2807 26.3635C79.2227 32.0332 73.1354 38.9097 66.7336 39.0066C60.8345 39.089 56.9711 31.8031 65.1784 19.1018C74.2523 5.04851 84.9361 0.738027 88.4032 0.260699C91.8654 -0.223897 92.9873 1.25412 92.9873 1.25412C92.9873 1.25412 95.8898 -0.03975 99.5748 0.202548C103.802 0.478768 107.079 3.36696 111.398 5.395C110.268 6.45626 109.199 7.54176 108.223 8.55698L108.225 8.55456ZM92.4746 3.04228C92.4746 3.04228 89.9981 3.99936 87.1179 7.06685C84.2303 10.1416 82.566 13.575 83.8043 14.4957C84.2848 14.8398 85.3769 14.8979 87.3829 13.1631C88.9307 11.8086 90.5182 10.0447 91.6004 7.50783C92.8783 4.47184 92.4771 3.08832 92.4771 3.04228H92.4746Z" fill="#AEAEAE"/>
</g>
<defs>
<clipPath id="clip0_9_2">
<rect width="132" height="40" fill="white"/>
</clipPath>
</defs>
</svg>
